<?xml version="1.0" encoding="UTF-8"?><svg id="_รรฐ_1" xmlns="http://www.w3.org/2000/svg" viewBox="0 0 616.89 170"><defs><style>.cls-1{fill:#209022;}</style></defs><g><path class="cls-1" d="M447.11,143c-.14,0-.29-.01-.44-.05-1.08-.24-1.76-1.31-1.52-2.38,.43-1.92,.64-3.9,.64-5.87,0-14.99-12.19-27.18-27.18-27.18s-27.17,12.19-27.17,27.18c0,1.97,.22,3.94,.64,5.87,.24,1.08-.44,2.15-1.52,2.38-1.08,.24-2.15-.44-2.39-1.52-.49-2.21-.74-4.47-.74-6.73,0-17.19,13.98-31.18,31.17-31.18s31.18,13.99,31.18,31.18c0,2.26-.25,4.53-.74,6.73-.21,.93-1.03,1.57-1.95,1.57Z"/><path class="cls-1" d="M505.85,154.46c-10.89,0-19.76-8.86-19.76-19.76s8.86-19.76,19.76-19.76,19.76,8.86,19.76,19.76-8.86,19.76-19.76,19.76Zm0-35.51c-8.69,0-15.76,7.07-15.76,15.76s7.07,15.76,15.76,15.76,15.76-7.07,15.76-15.76-7.07-15.76-15.76-15.76Z"/><path class="cls-1" d="M550.21,143h-27.89c-1.1,0-2-.9-2-2s.9-2,2-2h27.89c7.23,0,13.11-5.88,13.11-13.11V56.77c0-1.22-.09-2.46-.27-3.68-1.79-12.39-12.6-21.73-25.14-21.73h-49.21c-4.07,0-7.39,3.31-7.39,7.38v100.25h8c1.1,0,2,.9,2,2s-.9,2-2,2h-10c-1.1,0-2-.9-2-2V38.75c0-6.28,5.11-11.38,11.39-11.38h49.21c14.51,0,27.02,10.81,29.1,25.15,.21,1.41,.31,2.85,.31,4.26V125.89c0,9.43-7.68,17.11-17.11,17.11Z"/><path class="cls-1" d="M479.32,143h-32.06c-1.1,0-2-.9-2-2s.9-2,2-2h30.06v-31.48h-58.7c-1.1,0-2-.9-2-2s.9-2,2-2h60.7c1.1,0,2,.9,2,2v35.48c0,1.1-.9,2-2,2Z"/><path class="cls-1" d="M565.32,87.18h-21.33c-13.05,0-23.67-10.62-23.67-23.67v-10.71c0-1.1,.9-2,2-2s2,.9,2,2v10.71c0,10.84,8.82,19.67,19.67,19.67h19.33v-26.41c0-.65-.03-1.31-.08-1.97h-22.86c-1.1,0-2-.9-2-2s.9-2,2-2h24.65c.99,0,1.84,.73,1.98,1.71,.21,1.42,.31,2.85,.31,4.26v28.41c0,1.1-.9,2-2,2Z"/><path class="cls-1" d="M418.63,154.14c-10.89,0-19.76-8.86-19.76-19.76s8.86-19.76,19.76-19.76,19.76,8.86,19.76,19.76-8.86,19.76-19.76,19.76Zm0-35.51c-8.69,0-15.76,7.07-15.76,15.76s7.07,15.76,15.76,15.76,15.76-7.07,15.76-15.76-7.07-15.76-15.76-15.76Z"/></g><g><g><path class="cls-1" d="M310.67,154.46c-10.89,0-19.76-8.86-19.76-19.76s8.86-19.76,19.76-19.76,19.76,8.86,19.76,19.76-8.86,19.76-19.76,19.76Zm0-35.51c-8.69,0-15.76,7.07-15.76,15.76s7.07,15.76,15.76,15.76,15.76-7.07,15.76-15.76-7.07-15.76-15.76-15.76Z"/><path class="cls-1" d="M376.19,143h-37.03c-.61,0-1.18-.28-1.56-.75-.38-.47-.52-1.09-.39-1.68,.43-1.92,.64-3.9,.64-5.87,0-14.99-12.19-27.18-27.18-27.18s-27.17,12.19-27.17,27.18c0,1.97,.22,3.94,.64,5.87,.13,.59-.01,1.21-.39,1.68-.38,.47-.95,.75-1.56,.75h-21.11c-1.1,0-2-.9-2-2V17.54c0-1.1,.9-2,2-2h205.99c1.1,0,2,.9,2,2V94.05c0,1.1-.9,2-2,2h-48.98c-22,0-39.89,17.89-39.89,39.89v5.06c0,1.1-.9,2-2,2Zm-34.64-4h32.64v-3.06c0-24.2,19.69-43.89,43.89-43.89h46.98V19.54h-201.99v119.46h16.72c-.2-1.42-.3-2.86-.3-4.3,0-17.19,13.98-31.18,31.17-31.18s31.18,13.99,31.18,31.18c0,1.44-.1,2.88-.3,4.3Z"/></g><g><path class="cls-1" d="M100.42,154.46c-10.89,0-19.76-8.86-19.76-19.76s8.86-19.76,19.76-19.76,19.76,8.86,19.76,19.76-8.86,19.76-19.76,19.76Zm0-35.51c-8.69,0-15.76,7.07-15.76,15.76s7.07,15.76,15.76,15.76,15.76-7.07,15.76-15.76-7.07-15.76-15.76-15.76Z"/><path class="cls-1" d="M197.89,154.46c-10.89,0-19.76-8.86-19.76-19.76s8.86-19.76,19.76-19.76,19.76,8.86,19.76,19.76-8.86,19.76-19.76,19.76Zm0-35.51c-8.69,0-15.76,7.07-15.76,15.76s7.07,15.76,15.76,15.76,15.76-7.07,15.76-15.76-7.07-15.76-15.76-15.76Z"/><path class="cls-1" d="M247.48,143h-21.11c-.61,0-1.18-.28-1.56-.75-.38-.47-.52-1.09-.39-1.68,.43-1.92,.64-3.9,.64-5.87,0-14.99-12.19-27.18-27.17-27.18s-27.18,12.19-27.18,27.18c0,1.97,.22,3.94,.64,5.87,.13,.59-.01,1.21-.39,1.68-.38,.47-.95,.75-1.56,.75h-40.5c-.61,0-1.18-.28-1.56-.75-.38-.47-.52-1.09-.39-1.68,.43-1.92,.64-3.9,.64-5.87,0-14.99-12.19-27.18-27.18-27.18s-27.17,12.19-27.17,27.18c0,1.97,.22,3.94,.64,5.87,.13,.59-.01,1.21-.39,1.68-.38,.47-.95,.75-1.56,.75h-21.11c-1.1,0-2-.9-2-2V17.54c0-1.1,.9-2,2-2H247.48c1.1,0,2,.9,2,2v123.46c0,1.1-.9,2-2,2Zm-18.72-4h16.72V19.54H52.82v119.46h16.72c-.2-1.42-.3-2.86-.3-4.3,0-17.19,13.98-31.18,31.17-31.18s31.18,13.99,31.18,31.18c0,1.44-.1,2.88-.3,4.3h35.72c-.2-1.42-.3-2.86-.3-4.3,0-17.19,13.99-31.18,31.18-31.18s31.17,13.99,31.17,31.18c0,1.44-.1,2.88-.3,4.3Z"/><path class="cls-1" d="M261.07,143h-13.59c-1.1,0-2-.9-2-2s.9-2,2-2h13.59c1.1,0,2,.9,2,2s-.9,2-2,2Z"/></g></g></svg>