<?xml version="1.0" standalone="no"?>
<!DOCTYPE svg PUBLIC "-//W3C//DTD SVG 20010904//EN"
 "http://www.w3.org/TR/2001/REC-SVG-20010904/DTD/svg10.dtd">
<svg version="1.0" xmlns="http://www.w3.org/2000/svg"
 width="1500.000000pt" height="500.000000pt" viewBox="0 0 1500.000000 500.000000"
 preserveAspectRatio="xMidYMid meet">
<metadata>
Created by potrace 1.15, written by Peter Selinger 2001-2017
</metadata>
<g transform="translate(0.000000,500.000000) scale(0.100000,-0.100000)"
fill="#000000" stroke="none">
<path d="M1395 3833 c-53 -12 -158 -50 -233 -84 -372 -171 -649 -470 -772
-833 -57 -169 -65 -230 -65 -486 0 -226 1 -239 28 -345 132 -511 477 -892 951
-1050 161 -54 231 -65 410 -66 280 0 546 67 724 183 34 22 62 43 61 47 0 3
-229 240 -509 526 l-510 520 0 798 0 797 -32 -1 c-18 -1 -42 -3 -53 -6z"/>
<path d="M2000 3153 l0 -688 434 -444 c238 -245 437 -446 443 -448 15 -5 136
186 172 271 42 100 87 283 102 409 14 121 6 350 -15 453 -85 402 -303 721
-646 947 -138 90 -373 187 -454 187 l-36 0 0 -687z"/></g>

<g transform="translate(0.000000,500.000000) scale(0.100000,-0.100000)"
fill="#0000FF" stroke="none">
<path d="M4250 3254 c-145 -31 -292 -137 -369 -267 -46 -78 -87 -206 -102
-313 -15 -111 -6 -325 17 -414 44 -172 150 -323 273 -389 201 -107 510 -91
693 36 45 31 63 82 53 154 -10 73 -26 73 -140 1 -184 -116 -416 -103 -546 31
-150 154 -184 530 -70 771 79 165 237 248 413 218 83 -15 140 -38 225 -93 91
-59 113 -46 113 68 0 68 -34 108 -128 152 -126 57 -293 75 -432 45z"/>
<path d="M8240 3143 c-47 -9 -50 -18 -50 -144 l0 -119 -69 0 c-86 0 -101 -12
-101 -81 0 -81 8 -89 95 -89 l75 0 0 -297 c0 -164 5 -329 10 -368 25 -174 109
-245 290 -245 147 0 190 27 190 119 0 78 -12 88 -81 66 -60 -20 -131 -16 -160
10 -42 39 -49 99 -49 417 l0 298 135 0 c123 0 135 2 145 19 15 29 12 104 -6
129 -14 21 -22 22 -145 22 l-129 0 0 125 0 124 -37 10 c-39 11 -68 12 -113 4z"/>
<path d="M5265 2890 c-205 -29 -343 -161 -396 -380 -17 -70 -17 -277 0 -353
38 -175 138 -290 294 -339 83 -26 257 -28 342 -3 180 52 287 173 335 380 15
66 15 245 -1 326 -25 127 -100 248 -190 305 -88 55 -251 83 -384 64z m210
-185 c149 -63 215 -310 144 -540 -48 -156 -197 -232 -364 -185 -67 19 -135 86
-166 165 -20 53 -23 77 -23 200 0 150 8 184 58 264 65 103 227 147 351 96z"/>
<path d="M7529 2890 c-60 -10 -135 -49 -204 -105 l-55 -45 0 60 c0 70 -11 80
-90 80 -99 0 -90 51 -90 -535 0 -590 -11 -535 104 -535 102 0 96 -25 96 383
l0 351 70 69 c78 76 134 106 198 107 79 0 142 -44 179 -125 16 -36 18 -78 21
-400 2 -321 5 -361 19 -372 25 -19 148 -17 167 3 14 13 16 57 16 332 0 174 -4
353 -9 397 -19 160 -74 251 -184 304 -69 33 -160 45 -238 31z"/>
<path d="M6015 2863 c-16 -15 -17 -49 -12 -387 4 -301 8 -382 21 -429 41 -147
128 -226 271 -246 127 -18 242 17 344 106 l51 45 0 -61 c0 -49 3 -62 19 -71
27 -14 134 -13 149 2 9 9 12 139 12 525 0 588 11 533 -104 533 -102 0 -96 25
-96 -384 l0 -353 -74 -70 c-86 -82 -141 -108 -215 -101 -67 7 -116 45 -150
117 l-26 56 -3 355 c-3 314 -5 356 -20 368 -25 19 -147 16 -167 -5z"/>
<path d="M6680 1445 l0 -35 75 0 75 0 0 -210 0 -210 40 0 40 0 0 210 0 210 75
0 75 0 0 35 0 35 -190 0 -190 0 0 -35z"/>
<path d="M7390 1374 c-69 -12 -70 -13 -70 -50 0 -33 2 -36 23 -29 12 4 46 9
75 12 57 6 92 -12 92 -49 0 -15 -8 -18 -42 -18 -59 0 -113 -17 -144 -44 -37
-31 -44 -107 -15 -154 35 -54 109 -69 169 -32 26 16 32 17 32 5 0 -10 11 -15
35 -15 l35 0 0 143 c0 152 -6 177 -50 208 -26 19 -97 30 -140 23z m120 -232
c0 -42 -3 -50 -29 -65 -42 -24 -97 -22 -111 4 -16 28 -5 66 23 81 19 10 38 15
110 27 4 0 7 -21 7 -47z"/>
<path d="M7710 1351 c-76 -40 -106 -181 -59 -277 34 -71 118 -100 210 -72 38
11 39 13 39 55 l0 44 -28 -21 c-15 -11 -44 -23 -63 -26 -51 -8 -98 33 -106 93
-17 127 62 200 155 143 18 -11 35 -20 37 -20 3 0 5 18 5 39 0 35 -3 40 -31 50
-48 17 -120 13 -159 -8z"/>
<path d="M8002 1350 c-39 -24 -56 -62 -48 -110 7 -46 42 -75 108 -90 64 -15
78 -25 78 -56 0 -48 -71 -58 -144 -19 l-46 24 0 -40 c0 -36 3 -41 35 -55 19
-7 57 -14 85 -14 88 0 140 42 140 113 0 66 -30 95 -109 111 -43 8 -81 32 -81
51 0 45 74 59 140 25 l40 -20 0 39 c0 35 -3 40 -31 50 -51 18 -130 13 -167 -9z"/>
<path d="M8482 1350 c-39 -24 -56 -62 -48 -110 7 -46 42 -75 108 -90 64 -15
78 -25 78 -56 0 -48 -71 -58 -144 -19 l-46 24 0 -40 c0 -36 3 -41 35 -55 19
-7 57 -14 85 -14 88 0 140 42 140 113 0 66 -30 95 -109 111 -43 8 -81 32 -81
51 0 45 74 59 140 25 l40 -20 0 39 c0 35 -3 40 -31 50 -51 18 -130 13 -167 -9z"/>
<path d="M5600 1341 c-5 -11 -10 -31 -10 -44 0 -16 -7 -26 -20 -30 -12 -3 -20
-14 -20 -26 0 -14 6 -21 20 -21 19 0 20 -7 20 -105 l0 -105 25 0 25 0 0 105
c0 98 1 105 20 105 15 0 20 7 20 25 0 18 -5 25 -20 25 -13 0 -20 7 -20 19 0
11 9 23 20 26 11 3 20 15 20 26 0 27 -65 27 -80 0z"/>
<path d="M7070 1175 l0 -185 35 0 35 0 0 130 c0 129 0 130 26 147 15 9 42 17
60 17 33 0 34 2 34 38 0 33 -3 38 -23 38 -12 0 -39 -9 -60 -20 l-37 -20 0 20
c0 16 -7 20 -35 20 l-35 0 0 -185z"/>
<path d="M5710 1140 l0 -130 30 0 30 0 0 89 c0 82 2 91 22 105 12 9 30 16 40
16 13 0 18 8 18 25 0 20 -5 25 -27 25 -14 0 -35 -7 -45 -17 -17 -15 -18 -15
-18 0 0 11 -8 17 -25 17 l-25 0 0 -130z"/>
<path d="M5900 1243 c-48 -43 -57 -108 -28 -186 20 -52 106 -74 167 -42 52 26
75 121 47 189 -19 46 -51 66 -108 66 -38 0 -54 -6 -78 -27z m128 -40 c6 -9 12
-39 12 -65 0 -39 -5 -54 -25 -73 -13 -14 -31 -25 -40 -25 -9 0 -27 11 -40 25
-56 55 -15 177 53 160 15 -3 33 -13 40 -22z"/>
<path d="M6140 1140 l0 -130 25 0 c25 0 25 1 25 83 0 97 15 130 58 125 l27 -3
3 -102 3 -103 29 0 30 0 0 88 c0 102 11 125 55 120 l30 -3 3 -102 c3 -102 3
-103 27 -103 l25 0 0 114 c0 107 -1 116 -22 130 -28 20 -87 21 -115 1 -18 -13
-22 -13 -33 0 -14 17 -72 20 -101 5 -13 -7 -19 -7 -19 0 0 5 -11 10 -25 10
l-25 0 0 -130z"/>
</g>
</svg>
