<?xml version="1.0" encoding="UTF-8"?><svg id="Logos" xmlns="http://www.w3.org/2000/svg" viewBox="0 0 619.38 279.22"><defs><style>.cls-1{fill:#238f37;}.cls-1,.cls-2,.cls-3,.cls-4{stroke-width:0px;}.cls-2{fill:#229137;}.cls-3{fill:#212449;}.cls-4{fill:#21244a;}</style></defs><path class="cls-3" d="M267.77,176.79v-16.01h5.95c4.99,0,8.38,3.31,8.38,8.02s-3.38,7.99-8.38,7.99h-5.95ZM279.22,168.8c0-3.1-1.92-5.54-5.5-5.54h-3.14v11.06h3.14c3.48,0,5.5-2.5,5.5-5.52Z"/><path class="cls-3" d="M284.02,170.98c0-3.36,2.45-6.07,5.88-6.07s5.71,2.66,5.71,6.31v.6h-8.95c.19,1.75,1.51,3.19,3.7,3.19,1.13,0,2.47-.46,3.29-1.27l1.15,1.66c-1.15,1.1-2.86,1.68-4.7,1.68-3.48,0-6.07-2.42-6.07-6.1ZM289.9,166.98c-2.16,0-3.14,1.66-3.26,3.07h6.53c-.05-1.37-.98-3.07-3.26-3.07Z"/><path class="cls-3" d="M312.32,176.79v-7.56c0-1.25-.55-2.09-1.9-2.09-1.13,0-2.18.79-2.69,1.54v8.11h-2.52v-7.56c0-1.25-.55-2.09-1.92-2.09-1.1,0-2.14.79-2.66,1.56v8.09h-2.52v-11.59h2.52v1.58c.48-.72,2.02-1.87,3.77-1.87s2.78.86,3.17,2.14c.67-1.06,2.21-2.14,3.94-2.14,2.14,0,3.34,1.15,3.34,3.5v8.38h-2.52Z"/><path class="cls-3" d="M317.38,170.98c0-3.31,2.28-6.07,5.95-6.07s5.98,2.76,5.98,6.07-2.26,6.1-5.98,6.1-5.95-2.76-5.95-6.1ZM326.69,170.98c0-2.04-1.2-3.84-3.36-3.84s-3.34,1.8-3.34,3.84,1.2,3.86,3.34,3.86,3.36-1.8,3.36-3.86Z"/><path class="cls-3" d="M338.09,176.79v-16.01h5.95c4.99,0,8.38,3.31,8.38,8.02s-3.38,7.99-8.38,7.99h-5.95ZM349.54,168.8c0-3.1-1.92-5.54-5.5-5.54h-3.14v11.06h3.14c3.48,0,5.5-2.5,5.5-5.52Z"/><path class="cls-3" d="M362.14,176.79v-1.25c-.86.98-2.21,1.54-3.74,1.54-1.9,0-4.03-1.27-4.03-3.84s2.14-3.77,4.03-3.77c1.56,0,2.9.5,3.74,1.49v-1.73c0-1.34-1.1-2.16-2.71-2.16-1.3,0-2.42.48-3.43,1.46l-1.03-1.75c1.34-1.27,3.02-1.87,4.87-1.87,2.57,0,4.82,1.08,4.82,4.2v7.68h-2.52ZM362.14,174.15v-1.75c-.58-.79-1.66-1.2-2.76-1.2-1.42,0-2.47.82-2.47,2.09s1.06,2.06,2.47,2.06c1.1,0,2.18-.41,2.76-1.2Z"/><path class="cls-3" d="M366.92,175.28l1.15-1.82c.82.84,2.42,1.63,3.94,1.63s2.28-.65,2.28-1.56c0-2.28-7.01-.65-7.01-5.09,0-1.9,1.63-3.53,4.56-3.53,1.97,0,3.46.7,4.51,1.63l-1.06,1.78c-.7-.79-1.99-1.39-3.43-1.39-1.32,0-2.16.6-2.16,1.42,0,2.06,7.01.53,7.01,5.14,0,2.04-1.7,3.6-4.82,3.6-1.97,0-3.77-.62-4.97-1.8Z"/><path class="cls-3" d="M387.1,176.79v-7.3c0-1.8-.94-2.35-2.35-2.35-1.27,0-2.38.77-2.98,1.56v8.09h-2.52v-16.01h2.52v6c.77-.91,2.28-1.87,4.1-1.87,2.5,0,3.74,1.3,3.74,3.67v8.21h-2.52Z"/><path class="cls-3" d="M392.88,176.79v-16.01h2.52v6.02c.91-1.22,2.26-1.9,3.72-1.9,2.98,0,5.14,2.35,5.14,6.1s-2.18,6.07-5.14,6.07c-1.51,0-2.83-.72-3.72-1.87v1.58h-2.52ZM398.38,174.85c2.02,0,3.29-1.58,3.29-3.84s-1.27-3.86-3.29-3.86c-1.18,0-2.42.72-2.98,1.58v4.58c.55.86,1.8,1.54,2.98,1.54Z"/><path class="cls-3" d="M406.11,170.98c0-3.31,2.28-6.07,5.95-6.07s5.98,2.76,5.98,6.07-2.26,6.1-5.98,6.1-5.95-2.76-5.95-6.1ZM415.42,170.98c0-2.04-1.2-3.84-3.36-3.84s-3.34,1.8-3.34,3.84,1.2,3.86,3.34,3.86,3.36-1.8,3.36-3.86Z"/><path class="cls-3" d="M427.66,176.79v-1.25c-.86.98-2.21,1.54-3.74,1.54-1.9,0-4.03-1.27-4.03-3.84s2.14-3.77,4.03-3.77c1.56,0,2.9.5,3.74,1.49v-1.73c0-1.34-1.1-2.16-2.71-2.16-1.3,0-2.42.48-3.43,1.46l-1.03-1.75c1.34-1.27,3.02-1.87,4.87-1.87,2.57,0,4.82,1.08,4.82,4.2v7.68h-2.52ZM427.66,174.15v-1.75c-.58-.79-1.66-1.2-2.76-1.2-1.42,0-2.47.82-2.47,2.09s1.06,2.06,2.47,2.06c1.1,0,2.18-.41,2.76-1.2Z"/><path class="cls-3" d="M433.44,176.79v-11.59h2.52v1.7c.86-1.1,2.26-1.97,3.77-1.97v2.5c-.22-.05-.48-.07-.79-.07-1.06,0-2.47.72-2.98,1.54v7.9h-2.52Z"/><path class="cls-3" d="M449.93,176.79v-1.58c-.89,1.15-2.23,1.87-3.72,1.87-2.98,0-5.16-2.26-5.16-6.07s2.16-6.1,5.16-6.1c1.44,0,2.78.67,3.72,1.9v-6.02h2.52v16.01h-2.52ZM449.93,173.31v-4.61c-.58-.86-1.8-1.56-3-1.56-1.99,0-3.26,1.61-3.26,3.86s1.27,3.84,3.26,3.84c1.2,0,2.42-.67,3-1.54Z"/><path class="cls-1" d="M187.42,101.58c17.48,3.46,30.66,18.92,30.66,37.46,0,7.95-2.43,15.34-6.58,21.45l15.61,15.61c8.06-10.25,12.88-23.17,12.88-37.24,0-30.71-22.94-56.04-52.58-59.71v22.43Z"/><path class="cls-4" d="M200.82,171.01c-5.99,3.93-13.13,6.22-20.82,6.22-21.04,0-38.09-17.1-38.09-38.19,0-18.49,13.11-33.91,30.51-37.43v-22.44c-29.56,3.74-52.42,29.03-52.42,59.69,0,33.24,26.86,60.18,60,60.18,13.72,0,26.35-4.63,36.46-12.39l-15.63-15.63Z"/><path class="cls-2" d="M262.51,123.38c0-13.22,10-22.25,22.9-22.25,9.48,0,14.96,5.16,18,10.51l-7.87,3.87c-1.81-3.48-5.68-6.26-10.13-6.26-7.8,0-13.48,6-13.48,14.12s5.68,14.13,13.48,14.13c4.45,0,8.32-2.71,10.13-6.26l7.87,3.81c-3.1,5.35-8.51,10.58-18,10.58-12.9,0-22.9-9.03-22.9-22.25Z"/><path class="cls-2" d="M306,129.25c0-8.84,6.19-16.32,16.45-16.32s16.51,7.48,16.51,16.32-6.19,16.38-16.51,16.38-16.45-7.48-16.45-16.38ZM330.45,129.25c0-4.84-2.9-9.03-8-9.03s-7.93,4.19-7.93,9.03,2.84,9.09,7.93,9.09,8-4.19,8-9.09Z"/><path class="cls-2" d="M365.04,144.86v-18.83c0-4.32-2.26-5.8-5.74-5.8-3.23,0-5.74,1.81-7.09,3.68v20.96h-8.19v-31.15h8.19v4.06c2-2.39,5.8-4.84,10.9-4.84,6.84,0,10.13,3.87,10.13,9.93v21.99h-8.19Z"/><path class="cls-2" d="M401.72,144.86v-4c-2.45,3.1-5.87,4.77-9.61,4.77-7.87,0-13.8-5.93-13.8-16.32s5.87-16.38,13.8-16.38c3.68,0,7.16,1.61,9.61,4.77v-15.87h8.26v43.02h-8.26ZM401.72,134.8v-11.03c-1.35-2.06-4.32-3.55-7.09-3.55-4.64,0-7.87,3.68-7.87,9.09s3.23,9.03,7.87,9.03c2.77,0,5.74-1.48,7.09-3.55Z"/><path class="cls-2" d="M437.87,144.86v-3.93c-2.13,2.39-5.87,4.71-10.96,4.71-6.84,0-10.06-3.74-10.06-9.8v-22.12h8.19v18.9c0,4.32,2.26,5.74,5.74,5.74,3.16,0,5.68-1.74,7.09-3.55v-21.09h8.19v31.15h-8.19Z"/><path class="cls-2" d="M452.14,105.45c0-2.71,2.26-4.84,4.9-4.84s4.9,2.13,4.9,4.84-2.19,4.9-4.9,4.9-4.9-2.19-4.9-4.9ZM452.98,144.86v-31.15h8.19v31.15h-8.19Z"/><path class="cls-2" d="M469.76,137.12v-16.25h-5.16v-7.16h5.16v-8.51h8.26v8.51h6.32v7.16h-6.32v14.06c0,1.93,1.03,3.42,2.84,3.42,1.23,0,2.39-.45,2.84-.9l1.74,6.19c-1.23,1.1-3.42,2-6.84,2-5.74,0-8.84-2.97-8.84-8.51Z"/></svg>