<?xml version="1.0" encoding="UTF-8"?><svg id="_รรฐ_1" xmlns="http://www.w3.org/2000/svg" viewBox="0 0 256.43 170"><defs><style>.cls-1{fill:#209022;}</style></defs><path class="cls-1" d="M187.46,157.38c-16.82,0-30.5-13.68-30.5-30.5s13.68-30.5,30.5-30.5,30.5,13.68,30.5,30.5-13.68,30.5-30.5,30.5Zm0-56.99c-14.61,0-26.5,11.89-26.5,26.5s11.89,26.5,26.5,26.5,26.5-11.89,26.5-26.5-11.89-26.5-26.5-26.5Z"/><path class="cls-1" d="M187.46,143.72c-9.28,0-16.84-7.55-16.84-16.84s7.55-16.84,16.84-16.84,16.84,7.55,16.84,16.84-7.55,16.84-16.84,16.84Zm0-29.67c-7.08,0-12.84,5.76-12.84,12.84s5.76,12.84,12.84,12.84,12.84-5.76,12.84-12.84-5.76-12.84-12.84-12.84Z"/><path class="cls-1" d="M68.73,143.72c-9.28,0-16.84-7.55-16.84-16.84s7.55-16.84,16.84-16.84,16.84,7.55,16.84,16.84-7.55,16.84-16.84,16.84Zm0-29.67c-7.08,0-12.84,5.76-12.84,12.84s5.76,12.84,12.84,12.84,12.84-5.76,12.84-12.84-5.76-12.84-12.84-12.84Z"/><path class="cls-1" d="M68.98,157.38c-16.82,0-30.5-13.68-30.5-30.5s13.68-30.5,30.5-30.5,30.5,13.68,30.5,30.5-13.68,30.5-30.5,30.5Zm0-56.99c-14.61,0-26.5,11.89-26.5,26.5s11.89,26.5,26.5,26.5,26.5-11.89,26.5-26.5-11.89-26.5-26.5-26.5Z"/><path class="cls-1" d="M161.55,67.98c-.78,0-1.52-.46-1.84-1.22l-4.26-10.05c-1.07-2.52-3.84-3.81-6.46-3.02l-9.15,2.78c-1.06,.32-2.17-.27-2.5-1.33-.32-1.06,.27-2.17,1.33-2.5l9.15-2.78c4.58-1.39,9.44,.88,11.31,5.28l4.26,10.05c.43,1.02-.04,2.19-1.06,2.62-.25,.11-.52,.16-.78,.16Z"/><path class="cls-1" d="M140.06,136.35h-19.06c-5.51,0-10.21-4.14-10.92-9.63-1.36-10.48-3.31-17.92-9.25-24.94-.71-.84-.61-2.1,.23-2.82,.84-.71,2.1-.61,2.82,.23,6.56,7.73,8.75,16.07,10.17,27.01,.45,3.5,3.44,6.14,6.95,6.14h19.06c2.7,0,4.9-2.2,4.9-4.9v-.56c0-23.43,19.06-42.49,42.49-42.49h2.24c2.3,0,4.43-1.05,5.83-2.89,1.36-1.78,1.81-4.04,1.22-6.18-3.75-13.72-11.44-22.51-23.54-26.87-1.04-.38-1.58-1.52-1.2-2.56,.38-1.04,1.52-1.58,2.56-1.2,13.22,4.77,21.98,14.72,26.04,29.58,.92,3.35,.22,6.88-1.9,9.66-2.16,2.83-5.45,4.46-9.01,4.46h-2.24c-21.23,0-38.49,17.27-38.49,38.49v.56c0,4.91-3.99,8.9-8.9,8.9Z"/><path class="cls-1" d="M71.52,87.73c-.31,0-.62-.07-.91-.22-6.93-3.57-13.07-6.24-18.77-8.17-4.84-1.64-8.1-6.2-8.1-11.36v-5.57c0-.68,.28-1.33,.78-1.8,.49-.46,1.16-.7,1.84-.67,15.3,.91,32.57,6.7,45.07,15.11,7.54,5.07,16.32,7.75,25.39,7.75h5.45c3.23,0,6.21-1.77,7.77-4.63,10.86-19.9,38.78-13.72,50.69-11.08l.98,.22c1.08,.24,1.76,1.3,1.52,2.38-.24,1.08-1.3,1.76-2.38,1.52l-.99-.22c-11.04-2.45-36.9-8.17-46.32,9.09-2.26,4.14-6.58,6.71-11.28,6.71h-5.45c-9.87,0-19.42-2.92-27.62-8.43-11.5-7.74-27.24-13.15-41.45-14.32v3.93c0,3.44,2.16,6.48,5.38,7.57,5.9,1.99,12.22,4.74,19.32,8.4,.98,.51,1.37,1.71,.86,2.69-.35,.69-1.05,1.08-1.78,1.08Z"/><path class="cls-1" d="M96.25,120.63c-.84,0-1.62-.53-1.9-1.37-.35-1.05,.22-2.18,1.26-2.53l12.53-4.18c1.05-.35,2.18,.22,2.53,1.26,.35,1.05-.22,2.18-1.26,2.53l-12.53,4.18c-.21,.07-.42,.1-.63,.1Z"/></svg>