<svg id="Pin_LBlue" xmlns="http://www.w3.org/2000/svg" width="22" height="29.898" viewBox="0 0 22 29.898">
  <g id="Path_467" data-name="Path 467" transform="translate(0)" fill="#5b9bd6">
    <path d="M 10.80859088897705 29.39031982421875 C 10.67335891723633 29.34885025024414 10.0731086730957 29.07974052429199 8.649250030517578 27.37903022766113 C 7.528979778289795 26.04094886779785 6.258930206298828 24.24459838867188 5.0730299949646 22.32089996337891 C 2.209549903869629 17.67586898803711 0.5 13.44375896453857 0.5 11.00000953674316 C 0.5 5.21027946472168 5.210279941558838 0.4999992847442627 11 0.4999992847442627 C 16.78972053527832 0.4999992847442627 21.5 5.21027946472168 21.5 11.00000953674316 C 21.5 13.38158893585205 19.76004981994629 17.3222599029541 16.60066032409668 22.09609985351562 C 15.44571018218994 23.84122848510742 14.14470958709717 25.62303924560547 12.9373197555542 27.11330986022949 C 11.70615673065186 28.63293075561523 11.08942985534668 29.21438789367676 10.89610004425049 29.35715866088867 L 10.86602020263672 29.35715866088867 L 10.80859088897705 29.39031982421875 Z" stroke="none"/>
    <path d="M 11 1 C 5.485979080200195 1 1 5.485988616943359 1 11.00000953674316 C 1 13.28616905212402 2.609249114990234 17.30168914794922 5.304740905761719 21.74153900146484 C 6.433770179748535 23.60121917724609 7.664660453796387 25.37637901306152 8.770649909973145 26.74003982543945 C 9.867098808288574 28.09191131591797 10.49229335784912 28.61330986022949 10.77316474914551 28.80612182617188 C 11.53779411315918 28.08816337585449 13.8804292678833 25.32355499267578 16.28997039794922 21.65904998779297 C 19.32728004455566 17.03984069824219 21 13.2543888092041 21 11.00000953674316 C 21 5.485988616943359 16.51401901245117 1 11 1 M 11 0 C 17.07513046264648 0 22 4.924869537353516 22 11.00000953674316 C 22 17.07513809204102 11.78571033477783 29.85715866088867 11 29.85715866088867 C 9.478446960449219 30.73562812805176 0 17.07513618469238 0 11.00000953674316 C 0 4.924869537353516 4.924869537353516 0 11 0 Z" stroke="none" fill="#fff"/>
  </g>
  <ellipse id="Ellipse_4" data-name="Ellipse 4" cx="5.5" cy="5.5" rx="5.5" ry="5.5" transform="translate(5.5 5.5)" fill="#fff"/>
</svg>
