<?xml version="1.0" encoding="UTF-8"?><svg id="_รรฐ_1" xmlns="http://www.w3.org/2000/svg" viewBox="0 0 442.3 170"><defs><style>.cls-1{fill:#209022;}</style></defs><g><path class="cls-1" d="M333.02,157.38c-10.89,0-19.76-8.86-19.76-19.76s8.86-19.76,19.76-19.76,19.76,8.86,19.76,19.76-8.86,19.76-19.76,19.76Zm0-35.51c-8.69,0-15.76,7.07-15.76,15.76s7.07,15.76,15.76,15.76,15.76-7.07,15.76-15.76-7.07-15.76-15.76-15.76Z"/><path class="cls-1" d="M377.38,145.92h-27.89c-1.1,0-2-.9-2-2s.9-2,2-2h27.89c7.23,0,13.11-5.88,13.11-13.11V59.69c0-1.22-.09-2.46-.27-3.68-1.79-12.39-12.6-21.73-25.14-21.73h-49.2c-4.07,0-7.39,3.31-7.39,7.39v100.25h8c1.1,0,2,.9,2,2s-.9,2-2,2h-10c-1.1,0-2-.9-2-2V41.67c0-6.28,5.11-11.39,11.39-11.39h49.2c14.51,0,27.02,10.81,29.1,25.15,.21,1.41,.31,2.84,.31,4.26v69.12c0,9.43-7.68,17.11-17.11,17.11Z"/><path class="cls-1" d="M394.49,90.1h-23.33c-13.05,0-23.67-10.62-23.67-23.67v-10.71c0-1.1,.9-2,2-2s2,.9,2,2v10.71c0,10.84,8.82,19.67,19.67,19.67h19.33v-26.41c0-.65-.03-1.31-.08-1.97h-22.86c-1.1,0-2-.9-2-2s.9-2,2-2h26.37l.25,1.71c.21,1.41,.31,2.85,.31,4.26v30.41Z"/><path class="cls-1" d="M306.49,145.92h-48.4c-1.1,0-2-.9-2-2v-23.3c0-7.82,6.36-14.18,14.18-14.18h36.22c1.1,0,2,.9,2,2v35.48c0,1.1-.9,2-2,2Zm-46.4-4h44.4v-31.48h-34.22c-5.61,0-10.18,4.57-10.18,10.18v21.3Z"/></g><g><path class="cls-1" d="M99.41,157.38c-10.89,0-19.76-8.86-19.76-19.76s8.86-19.76,19.76-19.76,19.76,8.86,19.76,19.76-8.86,19.76-19.76,19.76Zm0-35.51c-8.69,0-15.76,7.07-15.76,15.76s7.07,15.76,15.76,15.76,15.76-7.07,15.76-15.76-7.07-15.76-15.76-15.76Z"/><path class="cls-1" d="M245.94,145.93H127.9c-.61,0-1.18-.28-1.56-.75-.38-.47-.52-1.09-.39-1.69,.43-1.92,.64-3.9,.64-5.87,0-14.99-12.19-27.18-27.18-27.18s-27.17,12.19-27.17,27.18c0,1.97,.22,3.94,.64,5.87,.13,.59-.01,1.21-.39,1.69-.38,.47-.95,.75-1.56,.75h-21.11c-1.1,0-2-.9-2-2V20.47c0-1.1,.9-2,2-2h244.52c1.1,0,2,.9,2,2V96.97c0,1.1-.9,2-2,2h-26.64c-10.89,0-19.76,8.86-19.76,19.76v25.19c0,1.1-.9,2-2,2Zm-115.65-4h113.65v-23.19c0-13.1,10.66-23.76,23.76-23.76h24.64V22.47H51.82v119.46h16.72c-.2-1.42-.3-2.86-.3-4.3,0-17.19,13.98-31.18,31.17-31.18s31.18,13.99,31.18,31.18c0,1.44-.1,2.88-.3,4.3Z"/></g></svg>