<?xml version="1.0" encoding="UTF-8"?><svg id="_รรฐ_1" xmlns="http://www.w3.org/2000/svg" viewBox="0 0 495.37 170"><defs><style>.cls-1{fill:#209022;}</style></defs><g><path class="cls-1" d="M392.74,154.07c-10.89,0-19.76-8.86-19.76-19.76s8.86-19.76,19.76-19.76,19.76,8.86,19.76,19.76-8.86,19.76-19.76,19.76Zm0-35.51c-8.69,0-15.76,7.07-15.76,15.76s7.07,15.76,15.76,15.76,15.76-7.07,15.76-15.76-7.07-15.76-15.76-15.76Z"/><path class="cls-1" d="M437.1,142.62h-27.89c-1.1,0-2-.9-2-2s.9-2,2-2h27.89c7.23,0,13.11-5.88,13.11-13.11V56.39c0-1.22-.09-2.46-.27-3.68-1.79-12.39-12.6-21.73-25.14-21.73h-49.21c-4.07,0-7.38,3.31-7.38,7.38v100.25h8c1.1,0,2,.9,2,2s-.9,2-2,2h-10c-1.1,0-2-.9-2-2V38.36c0-6.28,5.11-11.38,11.38-11.38h49.21c14.51,0,27.02,10.81,29.1,25.15,.21,1.41,.31,2.84,.31,4.26V125.51c0,9.43-7.68,17.11-17.11,17.11Z"/><path class="cls-1" d="M454.21,86.8h-23.33c-13.05,0-23.67-10.62-23.67-23.67v-10.71c0-1.1,.9-2,2-2s2,.9,2,2v10.71c0,10.84,8.82,19.67,19.67,19.67h19.33v-26.41c0-.65-.03-1.31-.08-1.97h-22.86c-1.1,0-2-.9-2-2s.9-2,2-2h26.37l.25,1.71c.21,1.41,.31,2.85,.31,4.26v30.41Z"/><path class="cls-1" d="M366.21,142.62h-48.4c-1.1,0-2-.9-2-2v-23.3c0-7.82,6.36-14.18,14.18-14.18h36.22c1.1,0,2,.9,2,2v35.48c0,1.1-.9,2-2,2Zm-46.4-4h44.4v-31.48h-34.22c-5.61,0-10.18,4.57-10.18,10.18v21.3Z"/></g><g><g><path class="cls-1" d="M93.24,154.84c-10.89,0-19.76-8.86-19.76-19.76s8.86-19.76,19.76-19.76,19.76,8.86,19.76,19.76-8.86,19.76-19.76,19.76Zm0-35.51c-8.69,0-15.76,7.07-15.76,15.76s7.07,15.76,15.76,15.76,15.76-7.07,15.76-15.76-7.07-15.76-15.76-15.76Z"/><path class="cls-1" d="M137.12,154.69c-10.89,0-19.76-8.86-19.76-19.76s8.86-19.76,19.76-19.76,19.76,8.86,19.76,19.76-8.86,19.76-19.76,19.76Zm0-35.51c-8.69,0-15.76,7.07-15.76,15.76s7.07,15.76,15.76,15.76,15.76-7.07,15.76-15.76-7.07-15.76-15.76-15.76Z"/></g><path class="cls-1" d="M305.66,142.62H165.77c-.61,0-1.18-.28-1.56-.75-.38-.47-.52-1.09-.39-1.69,.77-3.45,.85-6.99,.25-10.5-2.24-13.06-13.73-22.54-27.34-22.54h-43.13c-13.6,0-25.1,9.48-27.34,22.54-.6,3.52-.52,7.05,.25,10.5,.13,.59-.01,1.21-.39,1.69-.38,.47-.95,.75-1.56,.75h-21.4c-1.1,0-2-.9-2-2V17.16c0-1.1,.9-2,2-2H354.06c1.1,0,2,.9,2,2V93.67c0,1.1-.9,2-2,2h-26.64c-10.89,0-19.76,8.86-19.76,19.76v25.19c0,1.1-.9,2-2,2Zm-137.49-4h135.49v-23.19c0-13.1,10.66-23.76,23.76-23.76h24.64V19.16H45.16v119.46h17c-.45-3.18-.39-6.4,.16-9.61,2.57-14.99,15.72-25.87,31.28-25.87h43.13c15.56,0,28.72,10.88,31.28,25.87,.55,3.21,.6,6.43,.16,9.61Z"/></g></svg>