<?xml version="1.0" encoding="UTF-8"?><svg id="_รรฐ_1" xmlns="http://www.w3.org/2000/svg" viewBox="0 0 530.16 170"><defs><style>.cls-1{fill:#209022;}</style></defs><g><g><path class="cls-1" d="M140.34,154.13c-10.89,0-19.76-8.86-19.76-19.76s8.86-19.76,19.76-19.76,19.76,8.86,19.76,19.76-8.86,19.76-19.76,19.76Zm0-35.51c-8.69,0-15.76,7.07-15.76,15.76s7.07,15.76,15.76,15.76,15.76-7.07,15.76-15.76-7.07-15.76-15.76-15.76Z"/><path class="cls-1" d="M97.11,154.13c-10.89,0-19.76-8.86-19.76-19.76s8.86-19.76,19.76-19.76,19.76,8.86,19.76,19.76-8.86,19.76-19.76,19.76Zm0-35.51c-8.69,0-15.76,7.07-15.76,15.76s7.07,15.76,15.76,15.76,15.76-7.07,15.76-15.76-7.07-15.76-15.76-15.76Z"/><path class="cls-1" d="M184.22,153.97c-10.89,0-19.76-8.86-19.76-19.76s8.86-19.76,19.76-19.76,19.76,8.86,19.76,19.76-8.86,19.76-19.76,19.76Zm0-35.51c-8.69,0-15.76,7.07-15.76,15.76s7.07,15.76,15.76,15.76,15.76-7.07,15.76-15.76-7.07-15.76-15.76-15.76Z"/></g><path class="cls-1" d="M245.74,142.51h-33.03c-.61,0-1.18-.28-1.56-.75-.38-.47-.52-1.09-.39-1.68,.77-3.45,.85-6.99,.25-10.5-2.24-13.06-13.73-22.54-27.34-22.54H97.67c-13.6,0-25.1,9.48-27.34,22.54-.6,3.51-.52,7.05,.25,10.5,.13,.59-.01,1.21-.39,1.68-.38,.47-.95,.75-1.56,.75h-20.78c-1.1,0-2-.9-2-2V17.05c0-1.1,.9-2,2-2H379.97c1.1,0,2,.9,2,2V93.56c0,1.1-.9,2-2,2h-92.34c-22,0-39.89,17.89-39.89,39.89v5.06c0,1.1-.9,2-2,2Zm-30.64-4h28.64v-3.06c0-24.2,19.69-43.89,43.89-43.89h90.34V19.05H49.85v119.46h16.38c-.45-3.18-.39-6.4,.16-9.61,2.57-14.99,15.72-25.87,31.28-25.87h85.99c15.56,0,28.72,10.88,31.28,25.87,.55,3.21,.6,6.43,.16,9.61Z"/></g><g><path class="cls-1" d="M418.65,154.95c-10.89,0-19.76-8.86-19.76-19.76s8.86-19.76,19.76-19.76,19.76,8.86,19.76,19.76-8.86,19.76-19.76,19.76Zm0-35.51c-8.69,0-15.76,7.07-15.76,15.76s7.07,15.76,15.76,15.76,15.76-7.07,15.76-15.76-7.07-15.76-15.76-15.76Z"/><path class="cls-1" d="M463.01,143.49h-27.89c-1.1,0-2-.9-2-2s.9-2,2-2h27.89c7.23,0,13.11-5.88,13.11-13.11V57.26c0-1.22-.09-2.46-.27-3.68-1.79-12.39-12.6-21.73-25.14-21.73h-49.21c-4.07,0-7.39,3.31-7.39,7.38v100.25h8c1.1,0,2,.9,2,2s-.9,2-2,2h-10c-1.1,0-2-.9-2-2V39.24c0-6.28,5.11-11.38,11.39-11.38h49.21c14.51,0,27.02,10.81,29.1,25.15,.21,1.41,.31,2.84,.31,4.26V126.38c0,9.43-7.68,17.11-17.11,17.11Z"/><path class="cls-1" d="M392.12,143.49h-32.06c-1.1,0-2-.9-2-2s.9-2,2-2h30.06v-31.48h-100.37c-1.1,0-2-.9-2-2s.9-2,2-2h53.97s.04,0,.06,0h48.33c1.1,0,2,.9,2,2v35.48c0,1.1-.9,2-2,2Z"/><path class="cls-1" d="M478.12,87.67h-21.33c-13.05,0-23.67-10.62-23.67-23.67v-10.71c0-1.1,.9-2,2-2s2,.9,2,2v10.71c0,10.84,8.82,19.67,19.67,19.67h19.33v-26.41c0-.65-.03-1.31-.08-1.97h-22.86c-1.1,0-2-.9-2-2s.9-2,2-2h24.64c.99,0,1.83,.73,1.98,1.71,.21,1.41,.31,2.84,.31,4.26v28.41c0,1.1-.9,2-2,2Z"/><g><path class="cls-1" d="M287.55,154.79c-10.89,0-19.76-8.86-19.76-19.76s8.86-19.76,19.76-19.76,19.76,8.86,19.76,19.76-8.86,19.76-19.76,19.76Zm0-35.51c-8.69,0-15.76,7.07-15.76,15.76s7.07,15.76,15.76,15.76,15.76-7.07,15.76-15.76-7.07-15.76-15.76-15.76Z"/><path class="cls-1" d="M331.43,154.63c-10.89,0-19.76-8.86-19.76-19.76s8.86-19.76,19.76-19.76,19.76,8.86,19.76,19.76-8.86,19.76-19.76,19.76Zm0-35.51c-8.69,0-15.76,7.07-15.76,15.76s7.07,15.76,15.76,15.76,15.76-7.07,15.76-15.76-7.07-15.76-15.76-15.76Z"/></g><path class="cls-1" d="M359.8,143.49c-.14,0-.29-.01-.44-.05-1.08-.24-1.76-1.31-1.52-2.38,.77-3.45,.85-6.99,.25-10.5-2.24-13.06-13.73-22.55-27.34-22.55h-43.13c-13.6,0-25.1,9.48-27.34,22.55-.6,3.51-.52,7.05,.25,10.5,.24,1.08-.44,2.15-1.52,2.38-1.08,.24-2.15-.44-2.39-1.52-.88-3.96-.97-8.01-.28-12.04,2.57-14.99,15.72-25.87,31.28-25.87h43.13c15.56,0,28.72,10.88,31.28,25.87,.69,4.03,.59,8.08-.28,12.04-.21,.93-1.03,1.57-1.95,1.57Z"/></g></svg>