<?xml version="1.0" encoding="UTF-8"?><svg id="Layer_1" xmlns="http://www.w3.org/2000/svg" viewBox="0 0 25 25"><defs><style>.cls-1{fill:#000;stroke-width:0px;}</style></defs><path class="cls-1" d="M.34,19.13c0-1.42,1.16-2.58,2.58-2.58.2,0,.4.03.59.07l2.99-3.74c-.17-.34-.27-.72-.27-1.12,0-1.42,1.16-2.58,2.58-2.58s2.58,1.16,2.58,2.58c0,.3-.06.59-.16.86l2.62,2.62c.27-.1.56-.16.86-.16.07,0,.13.01.19.02l2.81-4.92c-.72-.73-1.16-1.73-1.16-2.83,0-2.23,1.82-4.05,4.05-4.05,2.24,0,4.05,1.82,4.05,4.05s-1.82,4.05-4.05,4.05c-.34,0-.66-.05-.97-.13l-2.81,4.92c.29.42.47.92.47,1.47,0,1.42-1.16,2.58-2.58,2.58s-2.58-1.16-2.58-2.58c0-.3.06-.59.16-.86l-2.62-2.62c-.27.1-.56.16-.86.16-.2,0-.4-.03-.59-.07l-2.99,3.74c.17.34.27.72.27,1.12,0,1.42-1.16,2.58-2.58,2.58-1.42,0-2.58-1.16-2.58-2.58h0ZM18.76,7.34c0,1.02.83,1.84,1.84,1.84s1.84-.83,1.84-1.84-.83-1.84-1.84-1.84-1.84.83-1.84,1.84Z"/></svg>