<?xml version="1.0" encoding="UTF-8"?><svg id="_รรฐ_1" xmlns="http://www.w3.org/2000/svg" viewBox="0 0 479.48 170"><defs><style>.cls-1{fill:#209022;}</style></defs><g><g><path class="cls-1" d="M166.92,139.2h-62.11c-1.1,0-2-.9-2-2s.9-2,2-2h62.11c1.1,0,2,.9,2,2s-.9,2-2,2Z"/><path class="cls-1" d="M188,157.38c-12.73,0-23.08-10.35-23.08-23.08s10.35-23.08,23.08-23.08,23.08,10.35,23.08,23.08-10.35,23.08-23.08,23.08Zm0-42.17c-10.52,0-19.08,8.56-19.08,19.08s8.56,19.08,19.08,19.08,19.08-8.56,19.08-19.08-8.56-19.08-19.08-19.08Z"/><path class="cls-1" d="M83.73,157.38c-12.73,0-23.08-10.35-23.08-23.08s10.35-23.08,23.08-23.08,23.08,10.35,23.08,23.08-10.35,23.08-23.08,23.08Zm0-42.17c-10.52,0-19.08,8.56-19.08,19.08s8.56,19.08,19.08,19.08,19.08-8.56,19.08-19.08-8.56-19.08-19.08-19.08Z"/></g><path class="cls-1" d="M62.65,139.2h-14.15c-4.01,0-7.27-3.26-7.27-7.27v-28.29c0-5.84,4.75-10.59,10.59-10.59h11.6c.81,0,1.57-.47,1.92-1.2l11.03-22.68c3.68-7.56,11.48-12.44,19.88-12.44h55.45c5.36,0,10.36,2.65,13.37,7.08l20.48,30.12c.62,.91,.38,2.16-.53,2.78-.91,.62-2.16,.38-2.78-.53l-20.48-30.12c-2.27-3.34-6.03-5.33-10.06-5.33h-55.45c-6.88,0-13.28,4-16.29,10.19l-11.03,22.68c-1.02,2.1-3.19,3.46-5.52,3.46h-11.6c-3.63,0-6.59,2.96-6.59,6.59v28.29c0,1.8,1.47,3.27,3.27,3.27h14.15c1.1,0,2,.9,2,2s-.9,2-2,2Z"/><path class="cls-1" d="M218.72,139.2h-9.63c-1.1,0-2-.9-2-2s.9-2,2-2h9.63c3.04,0,5.51-2.47,5.51-5.51v-19.61c0-7.12-5.79-12.91-12.91-12.91h-82.07c-11.25,0-20.4-9.15-20.4-20.4v-5.18c0-1.1,.9-2,2-2s2,.9,2,2v5.18c0,9.04,7.36,16.4,16.4,16.4h82.07c9.32,0,16.91,7.59,16.91,16.91v19.61c0,5.24-4.26,9.51-9.51,9.51Z"/><path class="cls-1" d="M187.77,144.33c-5.63,0-10.2-4.58-10.2-10.2s4.58-10.2,10.2-10.2,10.2,4.58,10.2,10.2-4.58,10.2-10.2,10.2Zm0-16.41c-3.42,0-6.2,2.78-6.2,6.2s2.78,6.2,6.2,6.2,6.2-2.78,6.2-6.2-2.78-6.2-6.2-6.2Z"/><path class="cls-1" d="M83.64,144.33c-5.63,0-10.2-4.58-10.2-10.2s4.58-10.2,10.2-10.2,10.2,4.58,10.2,10.2-4.58,10.2-10.2,10.2Zm0-16.41c-3.42,0-6.2,2.78-6.2,6.2s2.78,6.2,6.2,6.2,6.2-2.78,6.2-6.2-2.78-6.2-6.2-6.2Z"/></g><g><path class="cls-1" d="M378.69,137.16h-59.99c-1.1,0-2-.9-2-2s.9-2,2-2h59.99c1.1,0,2,.9,2,2s-.9,2-2,2Z"/><path class="cls-1" d="M426.8,137.16h-8.38c-1.1,0-2-.9-2-2s.9-2,2-2h8.38c4.11,0,7.45-3.34,7.45-7.45v-31.26c0-1.51-.41-2.99-1.2-4.28l-24.49-40.34c-2.73-4.5-7.69-7.29-12.95-7.29h-127.35c-4.38,0-7.95,3.57-7.96,7.95l-.13,74.69c0,2.13,.82,4.13,2.33,5.64,1.5,1.51,3.51,2.34,5.63,2.34h9.78c1.1,0,2,.9,2,2s-.9,2-2,2h-9.78c-3.2,0-6.21-1.25-8.47-3.51-2.26-2.26-3.5-5.27-3.5-8.47l.13-74.69c.01-6.58,5.38-11.94,11.96-11.94h127.35c6.65,0,12.92,3.53,16.37,9.21l24.49,40.34c1.16,1.92,1.78,4.11,1.78,6.35v31.26c0,6.31-5.14,11.45-11.45,11.45Z"/><path class="cls-1" d="M398.55,157.37c-12.06,0-21.86-9.81-21.86-21.86s9.81-21.86,21.86-21.86,21.86,9.81,21.86,21.86-9.81,21.86-21.86,21.86Zm0-39.73c-9.85,0-17.86,8.01-17.86,17.86s8.01,17.86,17.86,17.86,17.86-8.01,17.86-17.86-8.01-17.86-17.86-17.86Z"/><path class="cls-1" d="M398.55,145.61c-5.57,0-10.11-4.54-10.11-10.11s4.54-10.11,10.11-10.11,10.11,4.54,10.11,10.11-4.54,10.11-10.11,10.11Zm0-16.22c-3.37,0-6.11,2.74-6.11,6.11s2.74,6.11,6.11,6.11,6.11-2.74,6.11-6.11-2.74-6.11-6.11-6.11Z"/><path class="cls-1" d="M298.78,145.61c-5.57,0-10.11-4.54-10.11-10.11s4.54-10.11,10.11-10.11,10.11,4.54,10.11,10.11-4.54,10.11-10.11,10.11Zm0-16.22c-3.37,0-6.11,2.74-6.11,6.11s2.74,6.11,6.11,6.11,6.11-2.74,6.11-6.11-2.74-6.11-6.11-6.11Z"/><path class="cls-1" d="M298.78,157.37c-12.06,0-21.86-9.81-21.86-21.86s9.81-21.86,21.86-21.86,21.86,9.81,21.86,21.86-9.81,21.86-21.86,21.86Zm0-39.73c-9.85,0-17.86,8.01-17.86,17.86s8.01,17.86,17.86,17.86,17.86-8.01,17.86-17.86-8.01-17.86-17.86-17.86Z"/><path class="cls-1" d="M435.07,94.59h-29.18c-10.79,0-19.57-8.78-19.57-19.57v-11.41c0-1.35,1.1-2.46,2.46-2.46h29.15c1.1,0,2,.9,2,2s-.9,2-2,2h-27.61v9.87c0,8.58,6.98,15.57,15.57,15.57h29.18c1.1,0,2,.9,2,2s-.9,2-2,2Z"/></g></svg>