<?xml version="1.0" standalone="no"?>
<!DOCTYPE svg PUBLIC "-//W3C//DTD SVG 20010904//EN"
 "http://www.w3.org/TR/2001/REC-SVG-20010904/DTD/svg10.dtd">
<svg version="1.0" xmlns="http://www.w3.org/2000/svg"
 width="1500.000000pt" height="500.000000pt" viewBox="0 0 1500.000000 500.000000"
 preserveAspectRatio="xMidYMid meet">
<metadata>
Created by potrace 1.15, written by Peter Selinger 2001-2017
</metadata>
<g transform="translate(0.000000,500.000000) scale(0.100000,-0.100000)"
fill="#00FF00" stroke="none">
<path d="M1401 3795 c-185 -41 -415 -165 -598 -325 -219 -191 -376 -469 -430
-764 -23 -123 -22 -416 2 -541 83 -445 366 -825 761 -1023 77 -39 236 -94 339
-118 107 -25 371 -25 495 0 216 44 338 87 445 158 36 23 65 45 65 48 -1 3
-223 232 -495 510 l-494 505 -1 783 c0 619 -3 782 -12 781 -7 0 -42 -7 -77
-14z"/>
<path d="M1990 3138 l1 -673 424 -435 c234 -239 428 -436 433 -438 10 -3 109
143 146 216 35 68 90 257 110 371 20 121 21 369 1 482 -36 206 -127 427 -243
589 -77 107 -201 233 -310 315 -144 108 -386 220 -514 239 l-48 7 0 -673z"/>
<path d="M7825 3344 c-43 -12 -45 -24 -45 -312 l0 -273 -43 35 c-94 77 -201
105 -322 86 -167 -27 -279 -137 -331 -327 -24 -88 -30 -300 -11 -401 41 -217
155 -340 335 -362 129 -16 244 21 347 112 l55 50 0 -70 c0 -54 3 -71 16 -76
20 -8 118 -8 138 0 14 6 16 82 16 764 0 527 -3 761 -11 765 -14 9 -119 15
-144 9z m-220 -657 c28 -13 78 -51 113 -85 l62 -62 0 -202 0 -202 -70 -69
c-38 -37 -89 -77 -112 -87 -51 -23 -135 -26 -181 -6 -176 73 -212 519 -54 677
65 64 153 77 242 36z"/>
<path d="M9304 3266 c-35 -16 -44 -38 -44 -114 0 -43 5 -58 25 -77 21 -22 33
-25 93 -25 100 0 117 15 117 109 0 59 -3 74 -22 93 -28 27 -122 36 -169 14z"/>
<path d="M4270 3244 c-145 -31 -292 -137 -369 -267 -46 -78 -87 -206 -102
-313 -15 -111 -6 -325 17 -414 44 -172 150 -323 273 -389 201 -107 510 -91
693 36 45 31 63 82 53 154 -10 73 -26 73 -140 1 -184 -116 -416 -103 -546 31
-150 154 -184 530 -70 771 79 165 237 248 413 218 83 -15 140 -38 225 -93 91
-59 113 -46 113 68 0 68 -34 108 -128 152 -126 57 -293 75 -432 45z"/>
<path d="M9790 3133 c-47 -9 -50 -18 -50 -144 l0 -119 -69 0 c-86 0 -101 -12
-101 -81 0 -81 8 -89 95 -89 l75 0 0 -297 c0 -164 5 -329 10 -368 25 -174 109
-245 290 -245 147 0 190 27 190 119 0 78 -12 88 -81 66 -60 -20 -131 -16 -160
10 -42 39 -49 99 -49 417 l0 298 135 0 c123 0 135 2 145 19 15 29 12 104 -6
129 -14 21 -22 22 -145 22 l-129 0 0 125 0 124 -37 10 c-39 11 -68 12 -113 4z"/>
<path d="M5295 2880 c-205 -29 -343 -161 -396 -380 -17 -70 -17 -277 0 -353
38 -175 138 -290 294 -339 83 -26 257 -28 342 -3 180 52 287 173 335 380 15
66 15 245 -1 326 -25 127 -100 248 -190 305 -88 55 -251 83 -384 64z m210
-185 c149 -63 215 -310 144 -540 -48 -156 -197 -232 -364 -185 -67 19 -135 86
-166 165 -20 53 -23 77 -23 200 0 150 8 184 58 264 65 103 227 147 351 96z"/>
<path d="M6479 2880 c-60 -10 -135 -49 -204 -105 l-55 -45 0 60 c0 70 -11 80
-90 80 -99 0 -90 51 -90 -535 0 -590 -11 -535 104 -535 102 0 96 -25 96 383
l0 351 70 69 c78 76 134 106 198 107 79 0 142 -44 179 -125 16 -36 18 -78 21
-400 2 -321 5 -361 19 -372 25 -19 148 -17 167 3 14 13 16 57 16 332 0 174 -4
353 -9 397 -19 160 -74 251 -184 304 -69 33 -160 45 -238 31z"/>
<path d="M8205 2853 c-16 -15 -17 -49 -12 -387 4 -301 8 -382 21 -429 41 -147
128 -226 271 -246 127 -18 242 17 344 106 l51 45 0 -61 c0 -49 3 -62 19 -71
27 -14 134 -13 149 2 9 9 12 139 12 525 0 588 11 533 -104 533 -102 0 -96 25
-96 -384 l0 -353 -74 -70 c-86 -82 -141 -108 -215 -101 -67 7 -116 45 -150
117 l-26 56 -3 355 c-3 314 -5 356 -20 368 -25 19 -147 16 -167 -5z"/>
<path d="M9298 2859 c-17 -9 -18 -45 -18 -524 0 -590 -11 -535 104 -535 45 0
69 5 80 16 14 14 16 75 16 519 0 444 -2 505 -16 519 -18 19 -138 22 -166 5z"/>
<path d="M8200 1445 l0 -35 80 0 80 0 0 -210 0 -210 35 0 35 0 0 210 0 209 78
3 77 3 3 33 3 32 -195 0 -196 0 0 -35z"/>
<path d="M8870 1371 c-20 -5 -26 -14 -28 -45 -3 -34 -1 -38 15 -32 10 4 39 12
64 18 54 13 102 -4 107 -38 3 -19 -4 -22 -68 -32 -85 -13 -116 -31 -137 -79
-19 -47 -10 -95 26 -135 23 -26 35 -31 72 -31 24 0 59 7 77 17 28 14 32 15 32
1 0 -11 10 -15 35 -15 l35 0 0 148 c0 165 -7 188 -60 214 -36 18 -121 23 -170
9z m160 -225 c0 -36 -5 -48 -26 -65 -34 -27 -78 -27 -104 -1 -25 25 -25 41 -2
70 17 21 62 37 110 39 20 1 22 -4 22 -43z"/>
<path d="M9263 1369 c-49 -14 -89 -61 -103 -119 -24 -100 8 -203 73 -237 39
-20 122 -22 165 -4 28 12 32 18 32 52 0 22 -2 39 -5 39 -2 0 -19 -9 -37 -20
-35 -21 -88 -26 -117 -10 -21 11 -51 79 -51 115 0 14 7 43 17 66 26 67 89 80
159 34 33 -21 34 -20 34 25 0 35 -4 42 -27 51 -41 15 -104 19 -140 8z"/>
<path d="M9543 1365 c-43 -18 -65 -56 -65 -108 1 -55 37 -88 115 -106 83 -18
102 -67 34 -90 -33 -12 -83 -1 -122 25 -30 21 -35 17 -35 -26 0 -39 1 -39 52
-55 69 -20 96 -19 148 8 55 27 75 73 59 132 -8 29 -19 40 -52 56 -23 10 -50
19 -59 19 -39 0 -68 23 -68 52 0 39 38 54 98 37 23 -6 45 -16 48 -20 12 -21
24 -6 24 30 0 37 -1 39 -44 50 -58 14 -94 13 -133 -4z"/>
<path d="M10023 1365 c-43 -18 -65 -56 -65 -108 1 -55 37 -88 115 -106 83 -18
102 -67 34 -90 -33 -12 -83 -1 -122 25 -30 21 -35 17 -35 -26 0 -39 1 -39 52
-55 69 -20 96 -19 148 8 55 27 75 73 59 132 -8 29 -19 40 -52 56 -23 10 -50
19 -59 19 -39 0 -68 23 -68 52 0 39 38 54 98 37 23 -6 45 -16 48 -20 12 -21
24 -6 24 30 0 37 -1 39 -44 50 -58 14 -94 13 -133 -4z"/>
<path d="M7130 1350 c-11 -11 -20 -33 -20 -50 0 -20 -5 -30 -15 -30 -8 0 -15
-9 -15 -20 0 -11 7 -20 15 -20 12 0 15 -19 15 -110 l0 -110 25 0 25 0 0 110 0
110 25 0 c18 0 25 5 25 20 0 14 -7 20 -24 20 -19 0 -22 4 -18 25 3 16 11 25
23 25 14 0 19 7 19 25 0 21 -5 25 -30 25 -17 0 -39 -9 -50 -20z"/>
<path d="M8590 1175 l0 -185 35 0 35 0 0 128 c0 149 6 161 85 169 43 5 45 7
45 39 0 32 -2 34 -32 34 -18 0 -48 -9 -65 -20 -33 -20 -33 -20 -33 0 0 16 -7
20 -35 20 l-35 0 0 -185z"/>
<path d="M7312 1264 c-12 -8 -22 -10 -22 -5 0 6 -11 11 -25 11 l-25 0 0 -130
0 -130 25 0 c25 0 25 1 25 88 0 96 12 122 58 122 18 0 22 6 22 30 0 35 -21 40
-58 14z"/>
<path d="M7443 1264 c-39 -20 -63 -68 -63 -129 0 -107 82 -163 174 -120 40 19
66 70 66 131 0 59 -23 102 -65 120 -44 18 -72 17 -112 -2z m103 -55 c24 -27
25 -95 1 -132 -24 -37 -68 -37 -97 1 -26 32 -23 101 5 132 24 26 67 25 91 -1z"/>
<path d="M7738 1266 c-16 -8 -28 -11 -28 -5 0 5 -11 9 -25 9 l-25 0 0 -130 0
-130 24 0 c23 0 24 3 28 89 3 94 20 131 59 131 29 0 39 -33 39 -129 0 -90 0
-91 25 -91 25 0 25 1 25 90 0 77 3 93 20 110 21 21 29 23 54 14 13 -5 16 -25
16 -110 l0 -104 30 0 30 0 0 100 c0 122 -13 156 -64 166 -23 4 -46 1 -66 -9
-26 -14 -34 -14 -58 -1 -34 18 -50 18 -84 0z"/>
<path d="M9810 1098 l0 -108 35 0 35 0 0 108 0 108 -35 0 -35 0 0 -108z"/>
</g>
</svg>
