<?xml version="1.0" encoding="UTF-8"?><svg id="_รรฐ_1" xmlns="http://www.w3.org/2000/svg" viewBox="0 0 692.97 170"><defs><style>.cls-1{fill:#209022;}</style></defs><g><path class="cls-1" d="M587.62,154.04c-10.89,0-19.76-8.86-19.76-19.76s8.86-19.76,19.76-19.76,19.76,8.86,19.76,19.76-8.86,19.76-19.76,19.76Zm0-35.51c-8.69,0-15.76,7.07-15.76,15.76s7.07,15.76,15.76,15.76,15.76-7.07,15.76-15.76-7.07-15.76-15.76-15.76Z"/><path class="cls-1" d="M631.98,142.58h-27.89c-1.1,0-2-.9-2-2s.9-2,2-2h27.89c7.23,0,13.11-5.88,13.11-13.11V56.35c0-1.22-.09-2.46-.27-3.68-1.79-12.39-12.6-21.73-25.14-21.73h-49.2c-4.07,0-7.39,3.31-7.39,7.39v100.25h8c1.1,0,2,.9,2,2s-.9,2-2,2h-10c-1.1,0-2-.9-2-2V38.33c0-6.28,5.11-11.39,11.39-11.39h49.2c14.51,0,27.02,10.81,29.1,25.15,.21,1.41,.31,2.84,.31,4.26V125.47c0,9.43-7.68,17.11-17.11,17.11Z"/><path class="cls-1" d="M561.09,142.58h-32.06c-1.1,0-2-.89-2-2s.9-2,2-2h30.06v-31.48h-100.37c-1.1,0-2-.9-2-2s.9-2,2-2h102.37c1.1,0,2,.9,2,2v35.48c0,1.1-.9,2-2,2Z"/><path class="cls-1" d="M647.09,86.76h-21.33c-13.05,0-23.67-10.62-23.67-23.67v-10.71c0-1.1,.9-2,2-2s2,.9,2,2v10.71c0,10.84,8.82,19.67,19.67,19.67h19.33v-26.41c0-.65-.03-1.31-.08-1.97h-22.86c-1.1,0-2-.9-2-2s.9-2,2-2h24.64c.99,0,1.83,.73,1.98,1.71,.21,1.41,.31,2.84,.31,4.26v28.41c0,1.1-.9,2-2,2Z"/><g><path class="cls-1" d="M456.52,153.88c-10.89,0-19.76-8.86-19.76-19.76s8.86-19.76,19.76-19.76,19.76,8.86,19.76,19.76-8.86,19.76-19.76,19.76Zm0-35.51c-8.69,0-15.76,7.07-15.76,15.76s7.07,15.76,15.76,15.76,15.76-7.07,15.76-15.76-7.07-15.76-15.76-15.76Z"/><path class="cls-1" d="M500.4,153.72c-10.89,0-19.76-8.86-19.76-19.76s8.86-19.76,19.76-19.76,19.76,8.86,19.76,19.76-8.86,19.76-19.76,19.76Zm0-35.51c-8.69,0-15.76,7.07-15.76,15.76s7.07,15.76,15.76,15.76,15.76-7.07,15.76-15.76-7.07-15.76-15.76-15.76Z"/></g><path class="cls-1" d="M528.77,142.58c-.14,0-.29-.01-.43-.05-1.08-.24-1.76-1.31-1.52-2.38,.76-3.45,.85-6.99,.25-10.5-2.24-13.06-13.73-22.54-27.34-22.54h-43.13c-13.6,0-25.1,9.48-27.34,22.54-.6,3.51-.52,7.05,.25,10.5,.24,1.08-.44,2.15-1.52,2.38-1.07,.25-2.15-.44-2.38-1.52-.88-3.96-.97-8.01-.29-12.04,2.57-14.99,15.72-25.87,31.28-25.87h43.13c15.56,0,28.71,10.88,31.28,25.87,.69,4.03,.59,8.08-.29,12.04-.21,.93-1.03,1.57-1.95,1.57Z"/></g><g><g><g><path class="cls-1" d="M311.3,154.88c-10.89,0-19.76-8.86-19.76-19.76s8.86-19.76,19.76-19.76,19.76,8.86,19.76,19.76-8.86,19.76-19.76,19.76Zm0-35.51c-8.69,0-15.76,7.07-15.76,15.76s7.07,15.76,15.76,15.76,15.76-7.07,15.76-15.76-7.07-15.76-15.76-15.76Z"/><path class="cls-1" d="M355.18,154.72c-10.89,0-19.76-8.86-19.76-19.76s8.86-19.76,19.76-19.76,19.76,8.86,19.76,19.76-8.86,19.76-19.76,19.76Zm0-35.51c-8.69,0-15.76,7.07-15.76,15.76s7.07,15.76,15.76,15.76,15.76-7.07,15.76-15.76-7.07-15.76-15.76-15.76Z"/></g><path class="cls-1" d="M414.71,142.65h-30.88c-.61,0-1.18-.28-1.56-.75s-.52-1.09-.39-1.68c.76-3.45,.85-6.99,.25-10.5-2.24-13.06-13.73-22.54-27.34-22.54h-43.13c-13.6,0-25.1,9.48-27.34,22.54-.6,3.51-.52,7.05,.25,10.5,.13,.59-.01,1.21-.39,1.68s-.95,.75-1.56,.75h-21.4c-1.1,0-2-.9-2-2V17.19c0-1.1,.9-2,2-2l287.72-.07c.53,0,1.04,.21,1.41,.59s.59,.88,.59,1.41V93.63c0,1.1-.89,2-2,2l-92.36,.05c-21.98,.01-39.87,17.91-39.87,39.89v5.08c0,1.1-.9,2-2,2Zm-28.49-4h26.49v-3.08c0-24.19,19.68-43.88,43.87-43.89l90.36-.05V19.12l-283.72,.07v119.46h17c-.45-3.18-.39-6.4,.15-9.61,2.57-14.99,15.72-25.87,31.28-25.87h43.13c15.56,0,28.71,10.88,31.28,25.87,.55,3.21,.6,6.43,.15,9.61Z"/></g><g><path class="cls-1" d="M107.56,154.22c-10.89,0-19.76-8.86-19.76-19.76s8.86-19.76,19.76-19.76,19.76,8.86,19.76,19.76-8.86,19.76-19.76,19.76Zm0-35.51c-8.69,0-15.76,7.07-15.76,15.76s7.07,15.76,15.76,15.76,15.76-7.07,15.76-15.76-7.07-15.76-15.76-15.76Z"/><path class="cls-1" d="M198.03,154.22c-10.89,0-19.76-8.86-19.76-19.76s8.86-19.76,19.76-19.76,19.76,8.86,19.76,19.76-8.86,19.76-19.76,19.76Zm0-35.51c-8.69,0-15.76,7.07-15.76,15.76s7.07,15.76,15.76,15.76,15.76-7.07,15.76-15.76-7.07-15.76-15.76-15.76Z"/><path class="cls-1" d="M247.63,142.76h-21.12c-.61,0-1.18-.28-1.56-.75-.38-.47-.52-1.09-.39-1.68,.43-1.92,.64-3.9,.64-5.87,0-14.99-12.19-27.18-27.17-27.18s-27.18,12.19-27.18,27.18c0,1.97,.22,3.94,.64,5.87,.13,.59-.01,1.21-.39,1.68-.38,.47-.95,.75-1.56,.75h-33.5c-.61,0-1.18-.28-1.56-.75-.38-.47-.52-1.09-.39-1.68,.43-1.92,.64-3.9,.64-5.87,0-14.99-12.19-27.18-27.18-27.18s-27.17,12.19-27.17,27.18c0,1.97,.22,3.94,.64,5.87,.13,.59-.01,1.21-.39,1.68s-.95,.75-1.56,.75h-21.11c-1.1,0-2-.9-2-2V17.3c0-1.1,.9-2,2-2H247.63c1.1,0,2,.9,2,2v123.46c0,1.1-.9,2-2,2Zm-18.72-4h16.72V19.3H59.96v119.46h16.72c-.2-1.43-.3-2.86-.3-4.3,0-17.19,13.98-31.18,31.17-31.18s31.18,13.99,31.18,31.18c0,1.44-.1,2.88-.3,4.3h28.71c-.2-1.42-.3-2.86-.3-4.3,0-17.19,13.99-31.18,31.18-31.18s31.17,13.99,31.17,31.18c0,1.44-.1,2.88-.3,4.3Z"/><path class="cls-1" d="M261.22,142.76h-13.59c-1.1,0-2-.9-2-2s.9-2,2-2h13.59c1.1,0,2,.9,2,2s-.9,2-2,2Z"/></g></g></svg>