<?xml version="1.0" encoding="UTF-8"?><svg id="Layer_1" xmlns="http://www.w3.org/2000/svg" viewBox="0 0 25 25"><defs><style>.cls-1{fill:#000;fill-rule:evenodd;stroke-width:0px;}</style></defs><path class="cls-1" d="M21.17,5.39l-3.83-3.83c-.56-.56-1.47-.56-2.03,0l-3.83,3.83c-.56.56-.56,1.47,0,2.03.56.56,1.47.56,2.03,0l1.38-1.38v6.58h-6.58l1.38-1.38c.56-.56.56-1.47,0-2.03-.56-.56-1.47-.56-2.03,0l-3.83,3.83c-.56.56-.56,1.47,0,2.03l3.83,3.83c.56.56,1.47.56,2.03,0,.56-.56.56-1.47,0-2.03l-1.38-1.38h6.58v6.94c0,.79.64,1.44,1.44,1.44.4,0,.75-.16,1.01-.42.26-.26.42-.62.42-1.01h0s0-8.37,0-8.37V6.04l1.38,1.38c.56.56,1.47.56,2.03,0,.56-.56.56-1.47,0-2.03Z"/></svg>