<?xml version="1.0" encoding="UTF-8"?><svg id="Layer_1" xmlns="http://www.w3.org/2000/svg" viewBox="0 0 25 25"><defs><style>.cls-1{fill:#000;stroke-width:0px;}</style></defs><path class="cls-1" d="M3.43,13.71h18c.54,0,1.03.29,1.3.75.27.46.27,1.04,0,1.5s-.76.75-1.3.75H7.05s1.94,1.94,1.94,1.94c.37.38.52.93.38,1.44-.14.51-.54.92-1.06,1.06-.51.14-1.06,0-1.44-.38l-4.5-4.5c-.28-.28-.44-.66-.44-1.06s.16-.78.44-1.06c.28-.28.66-.44,1.06-.44h0Z"/><path class="cls-1" d="M15.87,4.24c-.28.28-.44.66-.44,1.06s.16.78.44,1.06l1.94,1.94H3.43c-.54,0-1.03.29-1.3.75-.27.46-.27,1.04,0,1.5s.76.75,1.3.75h18c.4,0,.78-.16,1.06-.44.28-.28.44-.66.44-1.06s-.16-.78-.44-1.06l-4.5-4.5c-.28-.28-.66-.44-1.06-.44s-.78.16-1.06.44h0Z"/></svg>