<svg xmlns="http://www.w3.org/2000/svg" width="15.156" height="20.597" viewBox="0 0 15.156 20.597">
  <g id="Location.pin" transform="translate(-66 -113.034)">
    <g id="Group_3218" data-name="Group 3218" transform="translate(66 113.034)">
      <g id="Path_467" data-name="Path 467" transform="translate(0)" fill="none">
        <path d="M7.578,0a7.578,7.578,0,0,1,7.578,7.578c0,4.185-7.037,12.991-7.578,12.991C6.53,21.174,0,11.763,0,7.578A7.578,7.578,0,0,1,7.578,0Z" stroke="none"/>
        <path d="M 7.5780029296875 1.999998092651367 C 4.502283096313477 1.999998092651367 2.000002861022949 4.502277374267578 2.000002861022949 7.578007698059082 C 2.000002861022949 8.558587074279785 2.671113014221191 10.74201774597168 4.554642677307129 13.92934799194336 C 5.635832786560059 15.75893783569336 6.66289234161377 17.13989639282227 7.362617015838623 17.95626640319824 C 8.096996307373047 17.07504272460938 9.175786972045898 15.66864967346191 10.27263259887695 13.97754764556885 C 12.94807243347168 9.852587699890137 13.15600299835205 8.036397933959961 13.15600299835205 7.578007698059082 C 13.15600299835205 4.502277374267578 10.65372276306152 1.999998092651367 7.5780029296875 1.999998092651367 M 7.5780029296875 -1.9073486328125e-06 C 11.76321315765381 -1.9073486328125e-06 15.15600299835205 3.392787933349609 15.15600299835205 7.578007698059082 C 15.15600299835205 11.76322746276855 8.119293212890625 20.56887817382812 7.5780029296875 20.56887817382812 C 6.529792785644531 21.17405891418457 2.86102294921875e-06 11.76322650909424 2.86102294921875e-06 7.578007698059082 C 2.86102294921875e-06 3.392787933349609 3.392783164978027 -1.9073486328125e-06 7.5780029296875 -1.9073486328125e-06 Z" stroke="none" fill="#141b4d"/>
      </g>
      <g id="Ellipse_4" data-name="Ellipse 4" transform="translate(3.789 3.789)" fill="none" stroke="#141b4d" stroke-width="2">
        <ellipse cx="3.789" cy="3.789" rx="3.789" ry="3.789" stroke="none"/>
        <ellipse cx="3.789" cy="3.789" rx="2.789" ry="2.789" fill="none"/>
      </g>
    </g>
  </g>
</svg>
