<svg id="Group_3311" data-name="Group 3311" xmlns="http://www.w3.org/2000/svg" width="22" height="29.898" viewBox="0 0 22 29.898">
  <defs>
    <style>
      .cls-1 {
        fill: blue;
      }

      .cls-2 {
        fill: #fff;
      }

      .cls-3, .cls-4 {
        stroke: none;
      }

      .cls-4 {
        fill: #fff;
      }
    </style>
  </defs>
  <g id="Path_467" data-name="Path 467" class="cls-1" transform="translate(0 0)">
    <path class="cls-3" d="M 10.80859851837158 29.39031982421875 C 10.67336654663086 29.34885025024414 10.07311630249023 29.07974052429199 8.649257659912109 27.37903022766113 C 7.528987407684326 26.04094886779785 6.258927822113037 24.24459838867188 5.073037624359131 22.32089996337891 C 2.209547519683838 17.67586898803711 0.499997615814209 13.44375896453857 0.499997615814209 11.00000953674316 C 0.499997615814209 5.21027946472168 5.210277557373047 0.4999992847442627 11.00000762939453 0.4999992847442627 C 16.78973770141602 0.4999992847442627 21.5000171661377 5.21027946472168 21.5000171661377 11.00000953674316 C 21.5000171661377 13.38158893585205 19.76006698608398 17.3222599029541 16.60067749023438 22.09609985351562 C 15.44571781158447 23.84122848510742 14.1447172164917 25.62303924560547 12.93732738494873 27.11330986022949 C 11.70616436004639 28.63293075561523 11.08943748474121 29.21438789367676 10.89610767364502 29.35715866088867 L 10.86602783203125 29.35715866088867 L 10.80859851837158 29.39031982421875 Z"/>
    <path class="cls-4" d="M 11.00000762939453 1 C 5.485986709594727 1 0.9999980926513672 5.485988616943359 0.9999980926513672 11.00000953674316 C 0.9999980926513672 13.28616905212402 2.609247207641602 17.30168914794922 5.304737091064453 21.74153900146484 C 6.433777809143066 23.60120964050293 7.664657592773438 25.37637901306152 8.770657539367676 26.74003982543945 C 9.867106437683105 28.0919189453125 10.49230003356934 28.61331367492676 10.77317142486572 28.80612373352051 C 11.53780078887939 28.08816337585449 13.88043785095215 25.32355499267578 16.28998756408691 21.65904998779297 C 19.32729721069336 17.03984069824219 21.0000171661377 13.2543888092041 21.0000171661377 11.00000953674316 C 21.0000171661377 5.485988616943359 16.5140266418457 1 11.00000762939453 1 M 11.00000762939453 0 C 17.07513809204102 0 22.0000171661377 4.924869537353516 22.0000171661377 11.00000953674316 C 22.0000171661377 17.07513809204102 11.78571796417236 29.85715866088867 11.00000762939453 29.85715866088867 C 9.478469848632812 30.73561477661133 -3.814697265625e-06 17.07513809204102 -1.9073486328125e-06 11.00000953674316 C -1.9073486328125e-06 4.924869537353516 4.924867630004883 0 11.00000762939453 0 Z"/>
  </g>
  <circle id="Ellipse_4" data-name="Ellipse 4" class="cls-2" cx="5.5" cy="5.5" r="5.5" transform="translate(5.5 5.5)"/>
</svg>
