<svg xmlns="http://www.w3.org/2000/svg" width="22" height="29.898" viewBox="0 0 22 29.898">
  <defs>
    <style>
      .cls-1 {
        fill: #141b4d;
      }
    </style>
  </defs>
  <path id="Exclusion_1" data-name="Exclusion 1" class="cls-1" d="M10.836,29.9h0c-.949,0-3.59-3.113-6.143-7.241C1.754,17.907,0,13.549,0,11A11,11,0,0,1,18.778,3.222,10.928,10.928,0,0,1,22,11c0,3.431-3.261,8.808-5.205,11.707-2.646,3.947-5.4,7.151-5.795,7.151A.324.324,0,0,1,10.836,29.9ZM11,5.5A5.5,5.5,0,1,0,16.5,11,5.506,5.506,0,0,0,11,5.5Z"/>
</svg>
