<?xml version="1.0" encoding="UTF-8"?><svg id="_รรฐ_1" xmlns="http://www.w3.org/2000/svg" viewBox="0 0 305.74 170"><defs><style>.cls-1{fill:#209022;}</style></defs><path class="cls-1" d="M38.21,103.1c-1.1,0-2-.9-2-2V54.99c0-5.99,4.88-10.87,10.87-10.87h1.11c1.1,0,2,.9,2,2s-.9,2-2,2h-1.11c-3.79,0-6.87,3.08-6.87,6.87v46.11c0,1.1-.9,2-2,2Z"/><path class="cls-1" d="M48.19,122.18h-1.11c-5.99,0-10.87-4.88-10.87-10.87v-11.73c0-1.1,.9-2,2-2s2,.9,2,2v11.73c0,3.79,3.08,6.87,6.87,6.87h1.11c1.1,0,2,.9,2,2s-.9,2-2,2Z"/><path class="cls-1" d="M200.03,148.3H111.81c-1.1,0-2-.9-2-2s.9-2,2-2h88.22c1.1,0,2,.9,2,2s-.9,2-2,2Z"/><path class="cls-1" d="M253.84,94.6c-.67,0-1.33-.34-1.71-.96l-17.43-28.57c-.58-.94-.28-2.17,.67-2.75,.94-.58,2.17-.28,2.75,.67l17.43,28.57c.58,.94,.28,2.17-.67,2.75-.33,.2-.68,.29-1.04,.29Z"/><path class="cls-1" d="M217.01,157.38c-12.06,0-21.86-9.81-21.86-21.86s9.81-21.86,21.86-21.86,21.86,9.81,21.86,21.86-9.81,21.86-21.86,21.86Zm0-39.73c-9.85,0-17.86,8.01-17.86,17.86s8.01,17.86,17.86,17.86,17.86-8.01,17.86-17.86-8.01-17.86-17.86-17.86Z"/><path class="cls-1" d="M217.01,145.63c-5.57,0-10.11-4.54-10.11-10.11s4.54-10.11,10.11-10.11,10.11,4.54,10.11,10.11-4.54,10.11-10.11,10.11Zm0-16.22c-3.37,0-6.11,2.74-6.11,6.11s2.74,6.11,6.11,6.11,6.11-2.74,6.11-6.11-2.74-6.11-6.11-6.11Z"/><path class="cls-1" d="M94.03,145.63c-5.57,0-10.11-4.54-10.11-10.11s4.54-10.11,10.11-10.11,10.11,4.54,10.11,10.11-4.54,10.11-10.11,10.11Zm0-16.22c-3.37,0-6.11,2.74-6.11,6.11s2.74,6.11,6.11,6.11,6.11-2.74,6.11-6.11-2.74-6.11-6.11-6.11Z"/><path class="cls-1" d="M94.03,157.38c-12.06,0-21.86-9.81-21.86-21.86s9.81-21.86,21.86-21.86,21.86,9.81,21.86,21.86-9.81,21.86-21.86,21.86Zm0-39.73c-9.85,0-17.86,8.01-17.86,17.86s8.01,17.86,17.86,17.86,17.86-8.01,17.86-17.86-8.01-17.86-17.86-17.86Z"/><path class="cls-1" d="M252.66,94.6h-29.18c-10.79,0-19.57-8.78-19.57-19.57v-11c0-1.1,.9-2,2-2s2,.9,2,2v11c0,8.58,6.98,15.57,15.57,15.57h29.18c1.1,0,2,.9,2,2s-.9,2-2,2Z"/><path class="cls-1" d="M77.35,148.28h-17.66c-3.57,0-6.94-1.4-9.49-3.95-2.6-2.6-4.02-6.07-4.02-9.78v-14.38c0-1.1,.9-2,2-2s2,.9,2,2v14.38c0,2.64,1.01,5.1,2.85,6.95,1.79,1.79,4.15,2.78,6.66,2.78h17.66c1.1,0,2,.9,2,2s-.9,2-2,2Z"/><path class="cls-1" d="M48.19,67.3c-1.1,0-2-.9-2-2v-21.66c0-3.7,2.92-6.96,7.28-8.13,20.75-5.55,61.65-15.56,102.41-20.3,53.45-6.21,88.32-1.25,103.62,14.73,3.81,3.99,5.9,8.92,5.9,13.89v16.66c0,3.11-2.94,5.55-6.69,5.55h-43.14c-1.1,0-2-.9-2-2s.9-2,2-2h43.14c1.54,0,2.69-.82,2.69-1.55v-16.66c0-3.99-1.66-7.84-4.79-11.13-33.51-34.99-163.17-3.74-202.11,6.67-2.58,.69-4.31,2.4-4.31,4.26v21.66c0,1.1-.9,2-2,2Z"/><path class="cls-1" d="M187.3,148.3h-34.67v-57.69h34.67v57.69Zm-30.67-4h26.67v-49.69h-26.67v49.69Z"/><path class="cls-1" d="M127.55,94.6h-36.62c-3.09,0-5.6-2.51-5.6-5.6v-21.77c0-3.09,2.51-5.6,5.6-5.6h36.62c3.09,0,5.6,2.51,5.6,5.6v21.77c0,3.09-2.51,5.6-5.6,5.6Zm-36.62-28.98c-.88,0-1.6,.72-1.6,1.6v21.77c0,.88,.72,1.6,1.6,1.6h36.62c.88,0,1.6-.72,1.6-1.6v-21.77c0-.88-.72-1.6-1.6-1.6h-36.62Z"/><path class="cls-1" d="M187.3,94.6h-34.67v-27.17c0-3.09,2.51-5.6,5.6-5.6h23.47c3.09,0,5.6,2.51,5.6,5.6v27.17Zm-30.67-4h26.67v-23.17c0-.88-.72-1.6-1.6-1.6h-23.47c-.88,0-1.6,.72-1.6,1.6v23.17Z"/><path class="cls-1" d="M257.17,148.3h-23.47c-1.1,0-2-.9-2-2s.9-2,2-2h23.47c4.61,0,8.36-3.75,8.36-8.36v-28.12c0-2.67-1.29-5.2-3.45-6.77l-9.41-6.83c-.89-.65-1.09-1.9-.44-2.79s1.9-1.09,2.79-.44l9.41,6.83c3.19,2.32,5.1,6.06,5.1,10v28.12c0,6.82-5.54,12.36-12.36,12.36Z"/></svg>